<?xml version="1.0" encoding="UTF-8"?>
<svg width="700pt" height="700pt" version="1.1" viewBox="0 0 700 700" xmlns="http://www.w3.org/2000/svg">
 <g fill='#fff'>
  <path d="m122.5 420c0.035156 29.383 11.727 57.555 32.504 78.332 20.777 20.773 48.945 32.465 78.328 32.5h233.34c29.383-0.035156 57.551-11.727 78.328-32.5 20.777-20.777 32.469-48.949 32.504-78.332v-116.67c-0.066406-26.301-9.4961-51.719-26.598-71.703-17.102-19.984-40.758-33.227-66.734-37.355v-54.273c-0.039063-29.383-11.727-57.555-32.504-78.332-20.777-20.773-48.949-32.465-78.332-32.5h-46.664c-29.383 0.035156-57.555 11.727-78.332 32.5-20.777 20.777-32.465 48.949-32.504 78.332v54.273c-25.977 4.1289-49.633 17.371-66.734 37.355-17.102 19.984-26.531 45.402-26.598 71.703zm128.33-280c0.027344-20.105 8.0234-39.379 22.238-53.594 14.219-14.219 33.492-22.215 53.598-22.238h46.668-0.003907c20.105 0.023437 39.379 8.0195 53.598 22.238 14.215 14.215 22.211 33.488 22.238 53.594v52.5h-198.34zm-93.332 163.33c0.023438-20.102 8.0234-39.379 22.238-53.594 14.215-14.215 33.492-22.215 53.594-22.238h233.34c20.102 0.023438 39.379 8.0234 53.594 22.238 14.215 14.215 22.215 33.492 22.238 53.594v116.67c-0.023438 20.105-8.0234 39.379-22.238 53.594-14.215 14.219-33.492 22.215-53.594 22.238h-233.34c-20.102-0.023437-39.379-8.0195-53.594-22.238-14.215-14.215-22.215-33.488-22.238-53.594z"/>
  <path d="m373.33 350c0 12.887-10.445 23.332-23.332 23.332s-23.332-10.445-23.332-23.332 10.445-23.332 23.332-23.332 23.332 10.445 23.332 23.332"/>
  <path d="m280 350c0 12.887-10.445 23.332-23.332 23.332s-23.336-10.445-23.336-23.332 10.449-23.332 23.336-23.332 23.332 10.445 23.332 23.332"/>
  <path d="m466.67 350c0 12.887-10.449 23.332-23.336 23.332s-23.332-10.445-23.332-23.332 10.445-23.332 23.332-23.332 23.336 10.445 23.336 23.332"/>
 </g>
</svg>
